<svg height="480pt" viewBox="0 0 480 480" width="480pt" xmlns="http://www.w3.org/2000/svg"><path d="m240 0c-132.546875 0-240 107.453125-240 240s107.453125 240 240 240 240-107.453125 240-240c-.148438-132.484375-107.515625-239.851562-240-240zm0 464c-123.710938 0-224-100.289062-224-224s100.289062-224 224-224 224 100.289062 224 224c-.140625 123.652344-100.347656 223.859375-224 224zm0 0"/><path d="m328 120h-176c-4.417969 0-8 3.582031-8 8v224c0 4.417969 3.582031 8 8 8h112c2.121094-.003906 4.152344-.847656 5.65625-2.34375l64-64c.667969-.679688 1.210938-1.472656 1.601562-2.34375.109376-.25.175782-.488281.261719-.746094.230469-.671875.371094-1.371094.417969-2.078125 0-.167969.09375-.320312.09375-.488281v-160c0-2.128906-.847656-4.167969-2.355469-5.667969-1.503906-1.5-3.546875-2.339843-5.675781-2.332031zm-168 16h160v144h-56c-4.417969 0-8 3.582031-8 8v56h-96zm112 196.6875v-36.6875h36.6875zm0 0"/><path d="m200 200h80c4.417969 0 8-3.582031 8-8s-3.582031-8-8-8h-80c-4.417969 0-8 3.582031-8 8s3.582031 8 8 8zm0 0"/><path d="m200 248h80c4.417969 0 8-3.582031 8-8s-3.582031-8-8-8h-80c-4.417969 0-8 3.582031-8 8s3.582031 8 8 8zm0 0"/><path d="m232 280h-32c-4.417969 0-8 3.582031-8 8s3.582031 8 8 8h32c4.417969 0 8-3.582031 8-8s-3.582031-8-8-8zm0 0"/></svg>