<svg height="480pt" viewBox="0 0 480 480" width="480pt" xmlns="http://www.w3.org/2000/svg"><path d="m240 0c-132.546875 0-240 107.453125-240 240s107.453125 240 240 240 240-107.453125 240-240c-.148438-132.484375-107.515625-239.851562-240-240zm0 464c-123.710938 0-224-100.289062-224-224s100.289062-224 224-224 224 100.289062 224 224c-.140625 123.652344-100.347656 223.859375-224 224zm0 0"/><path d="m313.535156 126.464844c-10.613281-.03125-20.796875 4.1875-28.277344 11.710937l-45.257812 45.257813c-13.414062 13.449218-15.539062 34.472656-5.078125 50.335937l-1.152344 1.152344c-15.863281-10.460937-36.886719-8.335937-50.335937 5.078125l-45.257813 45.257812c-15.503906 15.640626-15.449219 40.871094.125 56.441407 15.570313 15.574219 40.800781 15.628906 56.441407.125l45.257812-45.257813c13.414062-13.449218 15.539062-34.472656 5.078125-50.335937l1.152344-1.152344c15.863281 10.460937 36.886719 8.335937 50.335937-5.078125l45.257813-45.257812c11.4375-11.4375 14.855469-28.644532 8.664062-43.589844-6.191406-14.945313-20.773437-24.6875-36.953125-24.6875zm-84.847656 158.792968-45.253906 45.246094c-9.5 9.0625-24.441406 9.0625-33.9375 0-9.371094-9.371094-9.371094-24.5625 0-33.9375l45.246094-45.253906c7.15625-7.214844 18.109374-9.070312 27.242187-4.617188l-15.921875 15.929688c-2.078125 2.007812-2.914062 4.980469-2.179688 7.777344.730469 2.796875 2.917969 4.984375 5.714844 5.714844 2.796875.734374 5.769532-.101563 7.777344-2.179688l15.929688-15.929688c4.367187 9.144532 2.523437 20.050782-4.617188 27.25zm101.816406-101.824218-45.246094 45.253906c-7.199218 7.140625-18.105468 8.984375-27.25 4.617188l15.929688-15.929688c3.03125-3.136719 2.988281-8.128906-.097656-11.214844-3.085938-3.085937-8.078125-3.128906-11.214844-.097656l-15.929688 15.929688c-4.367187-9.144532-2.523437-20.050782 4.617188-27.25l45.253906-45.246094c6.027344-6.238282 14.949219-8.742188 23.339844-6.542969 8.394531 2.195313 14.945312 8.746094 17.140625 17.140625 2.199219 8.390625-.304687 17.3125-6.542969 23.339844zm0 0"/></svg>