<svg height="480pt" viewBox="0 0 480 480" width="480pt" xmlns="http://www.w3.org/2000/svg"><path d="m240 0c-132.546875 0-240 107.453125-240 240s107.453125 240 240 240 240-107.453125 240-240c-.148438-132.484375-107.515625-239.851562-240-240zm0 464c-123.710938 0-224-100.289062-224-224s100.289062-224 224-224 224 100.289062 224 224c-.140625 123.652344-100.347656 223.859375-224 224zm0 0"/><path d="m345.175781 269.265625-67.902343-12c-3.4375-.605469-6.867188 1.082031-8.480469 4.175781l-16.464844 31.550782c-29.132813-12.902344-52.414063-36.195313-65.304687-65.335938l31.519531-16.464844c3.09375-1.613281 4.78125-5.042968 4.175781-8.480468l-12-67.894532c-.375-2.136718-1.601562-4.027344-3.398438-5.242187-17.167968-11.578125-39.324218-12.742188-57.609374-3.023438-18.285157 9.722657-29.710938 28.742188-29.710938 49.449219.113281 101.574219 82.425781 183.886719 184 184 20.710938-.003906 39.730469-11.4375 49.449219-29.726562 9.714843-18.292969 8.542969-40.453126-3.050781-57.617188-1.210938-1.789062-3.09375-3.015625-5.222657-3.390625zm-41.175781 74.734375c-92.738281-.105469-167.894531-75.261719-168-168-.003906-14.210938 7.535156-27.355469 19.800781-34.535156 12.265625-7.175782 27.421875-7.304688 39.808594-.335938l10.34375 58.605469-32.800781 17.121094c-3.59375 1.875-5.21875 6.136719-3.785156 9.929687 14.625 38.6875 45.15625 69.238282 83.839843 83.878906 3.792969 1.433594 8.054688-.191406 9.929688-3.785156l17.128906-32.800781 58.605469 10.347656c6.953125 12.382813 6.8125 27.523438-.359375 39.78125-7.175781 12.253907-20.308594 19.789063-34.511719 19.792969zm0 0"/></svg>