<svg height="480pt" viewBox="0 0 480 480" width="480pt" xmlns="http://www.w3.org/2000/svg"><path d="m240 0c-132.546875 0-240 107.453125-240 240s107.453125 240 240 240 240-107.453125 240-240c-.148438-132.484375-107.515625-239.851562-240-240zm0 464c-123.710938 0-224-100.289062-224-224s100.289062-224 224-224 224 100.289062 224 224c-.140625 123.652344-100.347656 223.859375-224 224zm0 0"/><path d="m240 112c-52.996094.058594-95.941406 43.003906-96 96 0 66.542969 86.65625 153.96875 90.34375 157.65625 3.125 3.121094 8.1875 3.121094 11.3125 0 3.6875-3.6875 90.34375-91.113281 90.34375-157.65625-.058594-52.996094-43.003906-95.941406-96-96zm0 236.425781c-19.113281-20.425781-80-89.59375-80-140.425781 0-44.183594 35.816406-80 80-80s80 35.816406 80 80c0 50.785156-60.894531 120-80 140.425781zm0 0"/><path d="m240 160c-17.671875 0-32 14.328125-32 32s14.328125 32 32 32 32-14.328125 32-32-14.328125-32-32-32zm0 48c-8.835938 0-16-7.164062-16-16s7.164062-16 16-16 16 7.164062 16 16-7.164062 16-16 16zm0 0"/></svg>