<svg id="Layer_1" data-name="Layer 1" xmlns="http://www.w3.org/2000/svg" viewBox="0 0 637.81 1227.81"><defs><style>.cls-1{fill:none;stroke:blue;stroke-miterlimit:10;stroke-width:3px;}</style></defs><rect class="cls-1" x="12.73" y="302.8" width="613" height="107" transform="translate(36.04 -29.26) rotate(5.56)"/><rect class="cls-1" x="14.75" y="286.34" width="613" height="107" transform="translate(618.79 700.63) rotate(-176.12)"/><rect class="cls-1" x="11.53" y="261.26" width="613" height="107" transform="translate(634.37 631.22) rotate(-179.69)"/><rect class="cls-1" x="10.26" y="233.01" width="613" height="107" transform="translate(652.01 551.15) rotate(176.16)"/><rect class="cls-1" x="11.08" y="39.88" width="613" height="107" transform="translate(624.61 217.09) rotate(-174.44)"/><rect class="cls-1" x="9.05" y="56.33" width="613" height="107" transform="translate(8.15 -21.08) rotate(3.88)"/><rect class="cls-1" x="12.27" y="81.41" width="613" height="107" transform="translate(0.73 -1.7) rotate(0.31)"/><rect class="cls-1" x="13.54" y="109.67" width="613" height="107" transform="translate(-10.21 21.81) rotate(-3.84)"/><rect class="cls-1" x="10.08" y="425.92" width="613" height="107" transform="translate(585.2 987.26) rotate(-174.44)"/><rect class="cls-1" x="8.05" y="442.37" width="613" height="107" transform="translate(34.24 -20.13) rotate(3.88)"/><rect class="cls-1" x="11.27" y="467.46" width="613" height="107" transform="translate(2.79 -1.69) rotate(0.31)"/><rect class="cls-1" x="12.54" y="495.71" width="613" height="107" transform="translate(-36.08 22.61) rotate(-3.84)"/><rect class="cls-1" x="13.42" y="811.53" width="613" height="107" transform="translate(554.5 1756.99) rotate(-174.44)"/><rect class="cls-1" x="11.4" y="827.98" width="613" height="107" transform="translate(60.31 -19.47) rotate(3.88)"/><rect class="cls-1" x="14.62" y="853.06" width="613" height="107" transform="translate(4.86 -1.71) rotate(0.31)"/><rect class="cls-1" x="15.89" y="881.32" width="613" height="107" transform="translate(-61.9 23.7) rotate(-3.84)"/><rect class="cls-1" x="15.07" y="1074.45" width="613" height="107" transform="translate(110.84 -25.86) rotate(5.56)"/><rect class="cls-1" x="17.1" y="1058" width="613" height="107" transform="translate(571.33 2242.32) rotate(-176.12)"/><rect class="cls-1" x="13.88" y="1032.91" width="613" height="107" transform="translate(634.94 2174.53) rotate(-179.69)"/><rect class="cls-1" x="12.61" y="1004.66" width="613" height="107" transform="translate(708.4 2092.56) rotate(176.16)"/><rect class="cls-1" x="16.07" y="688.41" width="613" height="107" transform="translate(73.42 -27.77) rotate(5.56)"/><rect class="cls-1" x="18.1" y="671.95" width="613" height="107" transform="translate(599.42 1471.19) rotate(-176.12)"/><rect class="cls-1" x="14.88" y="646.87" width="613" height="107" transform="translate(639 1402.46) rotate(-179.69)"/><rect class="cls-1" x="13.61" y="618.62" width="613" height="107" transform="translate(684.53 1321.28) rotate(176.16)"/></svg>