<svg height="480pt" viewBox="0 0 480 480" width="480pt" xmlns="http://www.w3.org/2000/svg"><path d="m240 0c-132.546875 0-240 107.453125-240 240s107.453125 240 240 240 240-107.453125 240-240c-.148438-132.484375-107.515625-239.851562-240-240zm0 464c-123.710938 0-224-100.289062-224-224s100.289062-224 224-224 224 100.289062 224 224c-.140625 123.652344-100.347656 223.859375-224 224zm0 0"/><path d="m304 216c20.714844.003906 39.097656-13.285156 45.589844-32.957031 6.492187-19.671875-.371094-41.289063-17.019532-53.617188-16.648437-12.328125-39.324218-12.585937-56.25-.636719-16.921874 11.949219-24.269531 33.40625-18.222656 53.21875l-59.410156 29.703126c-12.246094-16.785157-33.898438-23.785157-53.65625-17.347657-19.753906 6.441407-33.121094 24.859375-33.121094 45.636719s13.367188 39.195312 33.121094 45.636719c19.757812 6.4375 41.410156-.5625 53.65625-17.347657l59.410156 29.703126c-7.457031 24.027343 4.75 49.757812 28.074219 59.183593 23.324219 9.421875 49.980469-.609375 61.308594-23.070312 11.324219-22.464844 3.539062-49.859375-17.90625-63.011719-21.449219-13.148438-49.394531-7.664062-64.277344 12.617188l-59.410156-29.703126c2.792969-9.125 2.792969-18.875 0-28l59.410156-29.703124c9.011719 12.375 23.394531 19.695312 38.703125 19.695312zm0 64c17.671875 0 32 14.328125 32 32s-14.328125 32-32 32-32-14.328125-32-32 14.328125-32 32-32zm-144-8c-17.671875 0-32-14.328125-32-32s14.328125-32 32-32 32 14.328125 32 32-14.328125 32-32 32zm144-136c17.671875 0 32 14.328125 32 32s-14.328125 32-32 32-32-14.328125-32-32 14.328125-32 32-32zm0 0"/></svg>